<svg width="100" height="150" viewBox="0 0 100 150" fill="none" xmlns="http://www.w3.org/2000/svg">
<g id="img_logo_footer">
<path id="Union" fill-rule="evenodd" clip-rule="evenodd" d="M50 14.2858C49.4942 14.2858 49.0842 14.6958 49.0842 15.2015C49.0842 15.7073 49.4942 16.1173 50 16.1173C55.6676 16.1173 61.0103 17.5088 65.7048 19.9689C64.2602 21.889 63.2178 23.1936 61.457 24.833C61.2051 25.0675 60.9334 25.2729 60.63 25.502L60.6175 25.5115C60.3322 25.7269 60.0044 25.9745 59.7172 26.2553C59.4179 26.5482 59.1304 26.9069 58.9419 27.3669C58.7507 27.8336 58.6835 28.3502 58.7476 28.9263C58.9561 30.8033 60.3982 31.969 61.8756 32.5831C63.3613 33.2007 65.1201 33.3747 66.4525 33.1279C67.574 32.9202 68.5835 32.5031 69.4833 32.1313C69.6516 32.0618 69.8161 31.9938 69.9767 31.9291C71.0293 31.5052 71.987 31.1853 73.0902 31.1853C74.035 31.1853 74.9044 31.6559 75.9681 32.3567C76.0949 32.4403 76.2255 32.528 76.3596 32.6181L76.3597 32.6182C77.2665 33.2273 78.3373 33.9467 79.5333 34.2457C79.6932 34.2857 79.8537 34.2809 80.0018 34.2394C82.4802 38.9474 83.8828 44.3099 83.8828 50C83.8828 52.1834 83.6764 54.3177 83.2823 56.3848C83.1876 56.8816 83.5135 57.3611 84.0103 57.4558C84.5071 57.5506 84.9867 57.2246 85.0814 56.7278C85.4969 54.5482 85.7143 52.2991 85.7143 50C85.7143 30.2756 69.7244 14.2858 50 14.2858ZM62.705 26.1734C64.646 24.3663 65.7762 22.9251 67.3178 20.8712C71.9085 23.6063 75.798 27.3959 78.652 31.9058C78.2539 31.6785 77.846 31.4065 77.4024 31.1107C77.2639 31.0184 77.122 30.9237 76.9757 30.8273C75.9203 30.1319 74.6379 29.3538 73.0902 29.3538C71.6201 29.3538 70.3911 29.7878 69.2925 30.2303C69.1045 30.306 68.9217 30.3812 68.7425 30.4549L68.7422 30.4551C67.8432 30.825 67.0358 31.1572 66.119 31.327C65.154 31.5057 63.7546 31.3807 62.5786 30.8919C61.3941 30.3996 60.6709 29.6515 60.5679 28.7241C60.5338 28.4173 60.5744 28.2132 60.6366 28.0614C60.7016 27.9029 60.8131 27.7455 60.998 27.5645C61.191 27.3758 61.4273 27.195 61.7337 26.9637L61.7573 26.9459C62.0435 26.7298 62.3816 26.4745 62.705 26.1734ZM40.1785 17.5624C40.6626 17.416 40.9364 16.9049 40.79 16.4208C40.6436 15.9366 40.1325 15.6629 39.6484 15.8092C24.9727 20.2467 14.2857 33.8741 14.2857 50C14.2857 59.9173 18.3291 68.892 24.8551 75.3623C25.1127 75.6177 25.4838 75.6887 25.8044 75.5759C26.0334 75.6736 26.2376 75.648 26.2814 75.6425L26.2824 75.6424C26.4519 75.6211 26.5816 75.5539 26.5985 75.5452L26.6 75.5444C26.7555 75.4666 26.8792 75.3506 26.9654 75.2135L27.0375 75.1472C27.2335 74.9687 27.5308 74.7094 27.8508 74.4324L28.1654 74.1604C28.3791 73.9758 28.5878 73.7956 28.7617 73.6436C28.8914 73.5304 29.0074 73.428 29.0953 73.348C29.1387 73.3086 29.1809 73.2694 29.2165 73.2346C29.2179 73.2332 29.319 73.1399 29.3923 73.0258C29.9587 72.1448 29.9832 71.3623 29.9832 70.565C29.9832 69.3472 29.6247 68.4254 29.1468 67.6138C28.9155 67.221 28.6536 66.8498 28.4051 66.5L28.3654 66.444C28.1253 66.106 27.8945 65.7813 27.6734 65.4275C27.297 64.8252 26.8256 64.3422 26.3916 63.9276C26.2691 63.8106 26.152 63.701 26.0395 63.5958L26.0394 63.5957L26.0392 63.5956C25.731 63.3072 25.457 63.0509 25.1997 62.7604C25.0891 62.6355 24.9785 62.5101 24.8676 62.3845L24.8669 62.3837C24.1765 61.6016 23.4759 60.8079 22.7084 60.0404L22.6457 59.9777C21.9728 59.3045 21.1661 58.4973 20.211 57.9389C19.5892 57.5754 18.9443 57.3008 18.3426 57.0546L18.0625 56.9405C17.5864 56.7469 17.1431 56.5667 16.7124 56.3565C16.3216 54.2976 16.1172 52.1728 16.1172 50C16.1172 48.7742 16.1823 47.5636 16.3092 46.3715C16.4966 46.3512 16.6793 46.2732 16.8289 46.1361C20.8033 42.4929 24.1816 38.4992 27.6086 34.4479L27.9549 34.0386C30.0124 31.607 31.5265 29.1571 31.8894 25.8105C32.0556 24.2778 32.037 22.9072 31.8032 21.5969C31.7935 21.5425 31.7791 21.4901 31.7607 21.4401C34.3479 19.7843 37.1751 18.4705 40.1785 17.5624ZM17.2105 58.5713C18.7271 64.3898 21.7516 69.5992 25.8425 73.7584C26.0562 73.5651 26.3528 73.3068 26.6521 73.0477L26.9734 72.7699L26.9744 72.769C27.1853 72.5869 27.387 72.4127 27.557 72.2641C27.6848 72.1525 27.7892 72.0603 27.8627 71.9934L27.897 71.9619C28.1195 71.5851 28.1517 71.2598 28.1517 70.565C28.1517 69.7526 27.9257 69.1495 27.5686 68.5431C27.3824 68.227 27.1643 67.9158 26.9119 67.5604L26.8657 67.4954C26.631 67.1652 26.3712 66.7995 26.1203 66.3982C25.8693 65.9966 25.5345 65.6417 25.1265 65.252C25.0359 65.1654 24.939 65.0748 24.8384 64.9808L24.8381 64.9805L24.8378 64.9802C24.5126 64.6762 24.1484 64.3357 23.8287 63.9747L23.489 63.5904L23.4889 63.5903C22.7965 62.806 22.1373 62.0595 21.4133 61.3355C20.6897 60.6119 20.0301 59.9547 19.2867 59.52C18.7848 59.2266 18.2434 58.9929 17.649 58.7497L17.3861 58.6426L17.2105 58.5713ZM30.0957 22.5767C23.2275 27.5705 18.3079 35.0816 16.6918 43.7538C20.1133 40.4723 23.1198 36.9183 26.2375 33.2329L26.2375 33.2329L26.5567 32.8556C28.5 30.5589 29.7615 28.4456 30.0686 25.613C30.1907 24.487 30.1995 23.4958 30.0957 22.5767ZM69.1518 80.1502C69.5785 79.8786 69.7042 79.3126 69.4326 78.8859C69.161 78.4593 68.595 78.3336 68.1684 78.6051C62.9183 81.9468 56.6866 83.8828 50 83.8828C44.9118 83.8828 40.088 82.7619 35.7598 80.7543C35.301 80.5415 34.7566 80.741 34.5438 81.1998C34.331 81.6586 34.5304 82.203 34.9892 82.4158C39.5539 84.5331 44.6403 85.7143 50 85.7143C57.0452 85.7143 63.6166 83.6734 69.1518 80.1502ZM27.9523 71.9086C27.9528 71.9082 27.9488 71.9126 27.9387 71.9225C27.9468 71.9138 27.9518 71.9089 27.9523 71.9086ZM47.783 35.4618C47.6086 35.4983 47.2075 35.821 46.8918 36.1792C46.576 36.5373 46.2301 36.8303 46.123 36.8303C46.0159 36.8303 45.4837 37.0749 44.9402 37.3738C44.2032 37.7791 43.6633 38.2381 42.8148 39.1806C41.8582 40.2432 41.5661 40.6899 40.9773 41.9926C40.5749 42.8822 39.8696 44.1061 39.3197 44.8687C38.7933 45.5987 38.2124 46.4571 38.0291 46.7763C37.8457 47.0955 37.4374 47.9251 37.1216 48.62C36.7759 49.3809 36.2491 50.2353 35.797 50.7683C35.3842 51.2551 34.8825 52.0183 34.6822 52.4645C34.366 53.1691 34.3089 53.5085 34.2476 55.0456C34.1881 56.5388 34.1206 56.9574 33.8164 57.7235C33.6179 58.2229 33.4199 58.8866 33.3761 59.1984C33.3268 59.5509 33.3757 60.0089 33.5058 60.4089C33.6207 60.7627 33.9032 61.289 34.1336 61.578C34.3639 61.8673 34.6353 62.3227 34.7368 62.5903C34.8382 62.858 35.0423 63.6494 35.1903 64.3491C35.3383 65.0488 35.539 65.7466 35.6363 65.8997C35.7335 66.0528 36.2144 66.5128 36.7048 66.9221C37.1951 67.3313 37.5964 67.722 37.5964 67.7901C37.5964 67.8584 38.0006 68.3642 38.4946 68.9142L39.3929 69.914L39.6959 71.5355C39.8627 72.4273 40.1 73.2798 40.2234 73.4301C40.3639 73.6012 40.6307 73.7034 40.9367 73.7034C41.2055 73.7034 41.5265 73.6205 41.6499 73.519C41.822 73.3777 41.9065 72.9255 42.0123 71.5804C42.0881 70.6155 42.234 69.3876 42.3362 68.8518C42.4386 68.3159 42.6555 67.4792 42.8182 66.9925C43.064 66.2575 43.3128 65.895 44.2866 64.8538C45.1635 63.9161 45.577 63.34 45.9269 62.5677C46.1842 61.9999 46.6081 60.8052 46.8687 59.9129C47.1295 59.0205 47.4727 57.7263 47.6317 57.0368C47.7905 56.3472 48.1196 55.053 48.363 54.1607C48.6062 53.2683 48.8764 52.0405 48.9632 51.4321C49.0499 50.8237 49.1821 50.0604 49.2568 49.7359C49.3316 49.4114 49.7207 48.5079 50.1216 47.7281C50.5226 46.9483 50.9694 45.9378 51.1144 45.4825C51.2596 45.0272 51.3777 44.4706 51.3768 44.2455C51.376 44.0204 51.2864 43.4712 51.1777 43.025C51.0691 42.5788 50.9794 41.9445 50.9786 41.6151C50.9777 41.2859 51.0523 40.917 51.1443 40.7955C51.2363 40.674 51.5324 40.3965 51.8024 40.179C52.0789 39.9563 52.3583 39.5665 52.442 39.2868C52.5407 38.9572 52.5477 38.6656 52.4629 38.4196C52.3925 38.2157 52.1722 37.9078 51.9731 37.7352C51.7739 37.5625 51.363 37.3494 51.0598 37.2615C50.7186 37.1625 50.2793 36.8558 49.9065 36.4566C49.5754 36.1017 49.0806 35.7088 48.8069 35.5834C48.5333 35.4581 48.2623 35.3644 48.2048 35.3755C48.1473 35.3865 47.9574 35.4253 47.783 35.4618ZM74.4149 56.6072C74.1481 56.6315 73.6776 56.7099 73.3692 56.7813C73.0608 56.8528 72.6201 56.9794 72.3898 57.0626C72.1594 57.1458 71.7294 57.3353 71.434 57.4836C71.1387 57.632 70.6992 57.89 70.4573 58.0569C70.2154 58.2239 69.8094 58.5496 69.5551 58.7808C69.3008 59.012 68.9321 59.3934 68.7358 59.6284C68.5395 59.8634 68.2467 60.26 68.0849 60.5097C67.9233 60.7594 67.6735 61.2135 67.53 61.5187C67.3864 61.824 67.2031 62.2685 67.1226 62.5065C67.0421 62.7446 66.9203 63.1986 66.852 63.5156C66.7837 63.8325 66.7036 64.3861 66.6741 64.7459C66.6445 65.1056 66.6342 65.5483 66.6511 65.7297C66.668 65.911 66.7034 66.1956 66.7296 66.3621C66.7559 66.5286 66.8446 66.9146 66.9267 67.2198C67.0088 67.5251 67.2091 68.1267 67.3717 68.5568C67.5343 68.9869 67.9122 69.8383 68.2115 70.4487C68.5107 71.0592 68.9247 71.8595 69.1315 72.2271C69.3384 72.5948 69.7515 73.2986 70.0496 73.7911C70.3477 74.2837 70.8881 75.1392 71.2503 75.6923C71.6126 76.2454 72.2304 77.1574 72.6234 77.7189C73.0163 78.2805 73.6453 79.1541 74.0211 79.6603C74.5675 80.3961 74.7436 80.5989 74.8998 80.6723C75.0072 80.7227 75.15 80.764 75.2171 80.764C75.2842 80.764 75.4284 80.7221 75.5374 80.6709C75.6953 80.5968 75.8593 80.4112 76.3429 79.76C76.6768 79.3102 77.2645 78.4955 77.649 77.9496C78.0334 77.4037 78.6414 76.5133 79.0003 75.9709C79.359 75.4285 79.9104 74.5658 80.2253 74.0537C80.5404 73.5417 81.0383 72.6913 81.3319 72.1641C81.6254 71.6369 82.0819 70.7515 82.3464 70.1965C82.6109 69.6415 82.939 68.8923 83.0756 68.5316C83.2122 68.1708 83.3875 67.6487 83.4652 67.3712C83.5428 67.0937 83.6387 66.6964 83.6781 66.4883C83.7175 66.2801 83.764 65.948 83.7814 65.7502C83.7989 65.5524 83.7891 65.0983 83.7598 64.7412C83.7304 64.384 83.6505 63.8325 83.5822 63.5156C83.5139 63.1986 83.3919 62.7446 83.3113 62.5065C83.2306 62.2685 83.0776 61.8807 82.9714 61.6449C82.8651 61.409 82.6764 61.0457 82.5521 60.8376C82.4278 60.6295 82.2079 60.2954 82.0634 60.0951C81.919 59.8949 81.6466 59.5604 81.4581 59.3519C81.2697 59.1433 80.9471 58.8277 80.7413 58.6504C80.5354 58.4733 80.1802 58.1989 79.952 58.0408C79.7238 57.8827 79.2955 57.6314 79.0002 57.4823C78.7048 57.3333 78.2748 57.1438 78.0444 57.0614C77.8141 56.9788 77.3748 56.8536 77.0682 56.783C76.7616 56.7124 76.2471 56.6312 75.9249 56.6025C75.6027 56.5737 75.2403 56.5531 75.1195 56.5567C74.9987 56.5602 74.6816 56.583 74.4149 56.6072ZM75.9493 61.4712C76.1238 61.5135 76.4314 61.6316 76.6327 61.7335C76.9099 61.8738 77.1 62.0234 77.4155 62.3494C77.7309 62.6754 77.8756 62.872 78.0113 63.1584C78.11 63.3665 78.2242 63.6844 78.2652 63.8648C78.3062 64.0451 78.3397 64.3857 78.3397 64.6215C78.3397 64.8574 78.3062 65.198 78.2652 65.3783C78.2242 65.5587 78.11 65.8765 78.0113 66.0846C77.8756 66.3711 77.7309 66.5677 77.4155 66.8937C77.1 67.2197 76.9099 67.3693 76.6327 67.5096C76.4314 67.6115 76.1238 67.7295 75.9493 67.7719C75.7748 67.8143 75.4453 67.8489 75.2171 67.8489C74.9889 67.8489 74.6594 67.8143 74.4849 67.7719C74.3104 67.7295 74.0029 67.6115 73.8015 67.5096C73.5243 67.3693 73.3342 67.2197 73.0187 66.8937C72.7033 66.5677 72.5586 66.3711 72.4229 66.0846C72.3243 65.8765 72.21 65.5587 72.169 65.3783C72.128 65.198 72.0945 64.8574 72.0945 64.6215C72.0945 64.3857 72.128 64.0451 72.169 63.8648C72.21 63.6844 72.3243 63.3665 72.4229 63.1584C72.5586 62.872 72.7033 62.6754 73.0187 62.3494C73.334 62.0236 73.5246 61.8736 73.8021 61.7329C74.0038 61.6307 74.3003 61.5142 74.4611 61.474C74.6218 61.4339 74.9511 61.3995 75.1927 61.3975C75.4343 61.3956 75.7748 61.4288 75.9493 61.4712ZM49.1746 70.92C49.102 70.8378 49.02 70.7449 48.9279 70.6479C49.2469 70.2239 49.6957 69.6729 50.1841 69.1777C50.5952 68.7609 50.9906 68.4288 51.3235 68.2385C51.5581 68.1045 51.6696 68.0909 51.6988 68.0895C52.0284 68.248 52.5219 68.5972 52.8453 68.9971C53.1986 69.4342 53.1262 69.6116 53.0857 69.6779C52.884 70.008 52.5008 70.4268 52.0332 70.79C51.5577 71.1595 51.0968 71.3922 50.7712 71.4573C50.6399 71.4836 50.3607 71.5176 50.0855 71.5185C49.9497 71.5189 49.8396 71.5111 49.7627 71.4985L49.7358 71.4936C49.5697 71.3672 49.4154 71.1926 49.1767 70.9223L49.1746 70.92ZM52.4427 66.4153C51.6863 66.0652 50.9199 66.3598 50.415 66.6483C49.8702 66.9595 49.3383 67.427 48.88 67.8917C47.9613 68.8233 47.163 69.9259 46.9171 70.3343L46.444 71.1201L47.2305 71.5919C47.3987 71.6929 47.5555 71.8535 47.8039 72.1347L47.8545 72.1922C48.0692 72.4365 48.3668 72.7751 48.7434 73.0358C48.9938 73.2091 49.2769 73.2747 49.4662 73.3058C49.6767 73.3403 49.8954 73.3506 50.0915 73.35C50.4803 73.3487 50.8779 73.3037 51.1304 73.2532C51.8489 73.1095 52.5722 72.6905 53.1569 72.2363C53.7495 71.776 54.3024 71.1992 54.6485 70.6329C55.3128 69.5458 54.7765 68.4727 54.2695 67.8456C53.7409 67.1919 52.995 66.6711 52.4427 66.4153ZM21.2899 112.032V92.9205H19.0734V90.8504H25.7115V92.9205H23.6435V112.032H21.2899ZM27.2704 112.032L30.321 90.8504H33.1659L36.4907 112.032H34.2627L33.6914 107.988H30.0468L29.5212 112.032H27.2704ZM30.3095 105.966H33.3944L31.8063 94.7739H31.772L30.3095 105.966ZM39.4206 90.8504V112.032H41.7856V90.8504H39.4206ZM47.4119 112.032L44.7613 90.8504H46.9435L48.6573 107.086L50.9424 90.8504H52.8733L55.2155 107.086L56.6665 90.8504H58.8373L56.4608 112.032H54.1186L51.9706 96.3986L49.697 112.032H47.4119ZM63.2068 90.8504L60.1562 112.032H62.407L62.9326 107.988H66.5773L67.1486 112.032H69.3765L66.0517 90.8504H63.2068ZM66.2802 105.966H63.1954L64.6578 94.7739H64.6921L66.2802 105.966ZM72.3064 112.032V90.8504H74.0888L78.7503 105.268L78.5104 99.1426V90.8504H80.6012V112.032H78.8646L74.3516 97.4938L74.4887 102.837V112.032H72.3064ZM43.87 134.87C44.2807 135.111 44.814 135.231 45.47 135.231C46.3037 135.231 46.9443 135.054 47.3918 134.698C47.8393 134.337 48.1489 133.823 48.3205 133.157C48.4983 132.491 48.5872 131.695 48.5872 130.768C48.5872 129.741 48.4002 128.84 48.0263 128.066C47.6585 127.286 47.1834 126.582 46.601 125.954L45.4976 124.745C45.191 124.409 44.9305 124.117 44.7159 123.87C44.5075 123.622 44.3512 123.356 44.247 123.07C44.1428 122.779 44.0907 122.411 44.0907 121.967C44.0907 121.459 44.1336 121.044 44.2194 120.72C44.3052 120.396 44.4431 120.159 44.6332 120.006C44.8294 119.848 45.0807 119.768 45.3872 119.768C45.7244 119.768 45.9726 119.883 46.132 120.111C46.2914 120.339 46.3956 120.682 46.4447 121.139C46.4998 121.589 46.5274 122.154 46.5274 122.832V123.955H48.3481V122.966C48.3481 122.242 48.3144 121.583 48.247 120.986C48.1857 120.39 48.0539 119.876 47.8516 119.445C47.6554 119.007 47.3581 118.671 46.9596 118.436C46.5673 118.202 46.0431 118.084 45.3872 118.084C44.5535 118.084 43.9098 118.252 43.4562 118.589C43.0025 118.925 42.6899 119.401 42.5182 120.016C42.3466 120.631 42.2608 121.361 42.2608 122.204C42.2608 122.832 42.3558 123.391 42.5458 123.879C42.742 124.368 42.9872 124.805 43.2815 125.192C43.5757 125.573 43.8761 125.925 44.1826 126.249L45.2401 127.343C45.7182 127.838 46.083 128.355 46.3343 128.894C46.5918 129.433 46.7205 130.077 46.7205 130.826C46.7205 131.479 46.696 132.005 46.647 132.405C46.5979 132.805 46.4845 133.097 46.3067 133.281C46.1351 133.458 45.8623 133.547 45.4884 133.547C44.9489 133.547 44.5964 133.296 44.4309 132.795C44.2715 132.288 44.1918 131.447 44.1918 130.274V128.57H42.3435V130.198C42.3435 130.94 42.3834 131.619 42.4631 132.234C42.5489 132.843 42.7022 133.373 42.9228 133.823C43.1435 134.273 43.4592 134.622 43.87 134.87ZM32.6251 118.294V135.041H34.5286V118.294H32.6251ZM51.0372 135.041V118.294H55.874V119.93H52.9406V125.659H55.7177V127.295H52.9406V133.404H55.9108V135.041H51.0372ZM58.5539 118.294V135.041H63.4274V133.404H60.4573V127.295H63.2343V125.659H60.4573V119.93H63.3906V118.294H58.5539ZM66.3188 135.041V133.157H67.928V135.041H66.3188Z" fill="white"/>
</g>
</svg>
